<svg width="24" height="24" xmlns="http://www.w3.org/2000/svg">

 <g>
  <title>Layer 1</title>
  <path id="svg_1" d="m10,2l-1,1l-5,0l0,2l1,0l0,15c0,0.52222 0.19133,1.05461 0.56836,1.43164c0.37703,0.37703 0.90942,0.56836 1.43164,0.56836l10,0c0.52222,0 1.05461,-0.19133 1.43164,-0.56836c0.37703,-0.37703 0.56836,-0.90942 0.56836,-1.43164l0,-15l1,0l0,-2l-5,0l-1,-1l-4,0zm-3,3l10,0l0,15l-10,0l0,-15zm2,2l0,11l2,0l0,-11l-2,0zm4,0l0,11l2,0l0,-11l-2,0z"/>
  <line stroke-linecap="undefined" stroke-linejoin="undefined" id="svg_7" y2="20.6875" x2="21.875" y1="2.1875" x1="1.875" stroke="#ff0000" fill="none"/>
 </g>
</svg>